<svg version="1" xmlns="http://www.w3.org/2000/svg" width="682.667" height="682.667" viewBox="0 0 512.000000 512.000000"><path d="M130.8 1.5C102.4 5.4 72 19.4 52.1 37.7l-5.3 4.8L65.3 78l18.5 35.5 28.5.3 28.5.2 5.5-16.7C172.3 18.4 178 1 178 .5c0-1-37.8-.3-47.2 1zM164.9 56.8l-18.6 56.7 11.3.3 11.4.3.2 41.8.3 41.8 14.7-20 14.6-20.1-10.9-21.8L177 114h53.9l41.3-56.2c22.7-30.9 41.5-56.5 41.6-57 .2-.4-29-.8-65-.8h-65.3l-18.6 56.8zM314.3 9.1C275.8 61.4 238 113 238 113.5c0 .3 2.7.5 6 .5h6v48l-24.2.2-24.2.3-16.2 22-16.3 22v35.3l-.1 35.3 50.8 97.5c27.9 53.6 51 97.4 51.4 97.4.4 0 28.5-18.4 62.5-41l61.8-41h-26.2L359 343.2c-5.6-25.7-11.4-51.7-12.8-57.7l-2.5-11-1.4 6c-.8 3.3-6.6 28.9-12.9 57-6.4 28-11.8 51.3-12.1 51.7-.2.5-9.4.8-20.4.8-16.2 0-19.9-.3-19.9-1.4 0-.7 8.8-44.9 19.5-98.1 10.7-53.2 19.5-96.9 19.5-97.1 0-.2 12.3-.4 27.3-.4h27.4l14.8 74.2c8.2 40.8 15 73.7 15.2 73.2.1-.5 6.8-33.1 14.8-72.4 8-39.3 14.8-72.3 15.1-73.3.5-1.6 2.7-1.7 27.5-1.7 25.3 0 27 .1 26.5 1.7-.3 1-10 37.1-21.6 80.3-11.6 43.2-21.5 80-22 81.8-.6 2.4-.5 3.1.3 2.6.7-.4 16.9-11 36-23.7l34.8-23-.4-90.1c-.4-100-.2-96.2-7.3-117.6-8-24.2-18.9-41.6-37.3-60.1-22.6-22.5-46.6-35.5-77.7-42-8.2-1.8-14.7-2.2-39.1-2.6l-29.1-.5-6.9 9.3zm-55.9 191.1c4.1 18.6 25.6 130.4 25.4 131.5-.3 1.2-33.9 36.6-34.3 36.1-.3-.2-34.1-125.6-45.3-167.6l-1.9-7.2h54.6l1.5 7.2zM37 52.7C20.3 71.3 7.4 98.6 2.4 125.5.6 134.9.5 142.7.5 256.5c0 110.8.1 121.8 1.7 130.2 2.1 10.6 6.9 26.5 8.2 26.5.4 0 13.6-17.4 29.1-38.6L67.9 336l17.5-53.3c29.7-90.6 26.6-79.7 26.6-92.8l-.1-11.4-4.2-8-4.2-8-36.2-.3L31 162v-48l23.4-.2 23.5-.3-17.2-33.2C51.2 62 43.2 47 42.8 47c-.3 0-3 2.6-5.8 5.7zM110 163.2c0 .7.5 2 1 2.8.8 1.2 1 .9 1-1.3 0-1.5-.4-2.7-1-2.7-.5 0-1 .6-1 1.2zM95.1 269.3C86 296.9 78.4 320.2 78.2 321c-.3.8 7.2-9 16.6-21.9l17.2-23.3v-28.4c0-15.6-.1-28.4-.2-28.4-.2 0-7.7 22.6-16.7 50.3zM91.9 312l-19.7 26.7-19.1 58.2c-14.5 43.9-18.9 58.5-18.2 59.9.5 1 5.8 6.5 11.8 12.3 21.5 20.8 46 33.7 75.9 40 8.8 1.9 14.1 2.2 49.5 2.6l39.7.5L239 494c21.5-14.4 27-18.5 26.5-19.8-.3-.9-22.1-42.9-48.3-93.3l-47.7-91.7-.3 50.4-.2 50.4h-57l-.2-52.4-.3-52.4L91.9 312zM474.8 343.4l-36.6 24.5-1.7 5.8c-.9 3.2-2.3 8.2-3.1 11l-1.5 5.3h-27.2l-65.8 43.7-65.9 43.6 3.4 6.1c1.8 3.4 5.9 11.2 9.2 17.4l5.8 11.4 44-.5c48.8-.5 52.2-.8 71.6-7.3 24.2-8 41.6-18.9 60.1-37.3 22.5-22.6 35.5-46.6 42-77.7 1.7-8.1 2.2-14.8 2.6-37.4.3-15.1.3-28.7.2-30.3-.4-2.7-1.2-2.2-37.1 21.7zM38 385.2c-12.9 17.6-23.9 33-24.4 34.3-.7 1.8 0 4 3.8 11 5.2 9.7 11.5 19.5 12.5 19.5.6 0 32.3-96.1 31.9-96.5-.2-.2-10.9 14.1-23.8 31.7zM245.1 495.8l-23.4 15.7 31.3.3c17.2.1 31.5 0 31.7-.2.4-.4-15.6-31.7-16-31.5-.1 0-10.7 7.1-23.6 15.7z"/></svg>