<svg width="17" height="15" viewBox="0 0 17 15" fill="none" xmlns="http://www.w3.org/2000/svg">
<path d="M11.9734 0.375C10.6227 0.375 9.3498 0.994727 8.5 2.0041C7.6502 0.994727 6.37734 0.375 5.02656 0.375C2.63301 0.375 0.78125 2.23789 0.78125 4.64629C0.78125 7.59648 3.40488 9.96406 7.3793 13.6156L8.5 14.625L9.6207 13.6156C13.5951 9.96406 16.2188 7.59648 16.2188 4.64629C16.2188 2.23789 14.367 0.375 11.9734 0.375ZM8.975 12.5951L8.81914 12.7398L8.5 13.0293L8.18086 12.7398L8.025 12.5951C6.15469 10.877 4.53672 9.39258 3.47168 8.06777C2.43262 6.78008 1.97246 5.72617 1.97246 4.64629C1.97246 3.79648 2.28418 3.01719 2.85195 2.4457C3.41602 1.87422 4.18789 1.5625 5.02656 1.5625C5.99512 1.5625 6.95625 2.01523 7.59082 2.76855L8.5 3.84844L9.40918 2.76855C10.0437 2.01152 11.0049 1.5625 11.9734 1.5625C12.8121 1.5625 13.584 1.87422 14.1518 2.4457C14.7195 3.01719 15.0312 3.8002 15.0312 4.64629C15.0312 5.72246 14.5674 6.78008 13.532 8.06777C12.4633 9.39258 10.849 10.877 8.975 12.5951Z" fill="#F22D45"/>
</svg>
