<svg width="964" height="104" viewBox="0 0 964 104" fill="none" xmlns="http://www.w3.org/2000/svg">
<path fill-rule="evenodd" clip-rule="evenodd" d="M244.51 104H348V0H320.886L244.51 104ZM314.683 0H183.557L149.371 104H238.307L314.683 0ZM52.5459 0H178.293L144.108 104H78.7328L31.7506 13.8048L52.5459 0ZM29.4278 9.34535L43.5055 0H24.5598L29.4278 9.34535ZM18.9222 0L25.2387 12.1263L0 28.8807V0H18.9222ZM27.5615 16.5857L73.0952 104H0V34.8821L27.5615 16.5857Z" fill="#6441A4"/>
<g filter="url(#filter0_d)">
<path d="M50.5 10.8V92.0001H33.796V24.9521H9.90002V10.8H50.5ZM52.936 10.8H74.396V24.9521H60.012L52.936 10.8Z" fill="white"/>
<path d="M127.663 34.0001H143.671L143.555 34.1161L128.011 92.0001H109.567L102.027 57.6641L94.2547 92.0001H82.3067V91.7681L93.9067 34.0001H109.915L118.731 77.9641L127.663 34.0001ZM76.5067 34.1161L84.5107 74.9481L74.3027 85.5041L74.1867 85.2721L60.3827 34.0001H76.5067V34.1161Z" fill="white"/>
<path d="M148.343 92.0001V34.0001H163.771V92.0001H148.343ZM148.343 10.8H163.771V24.3721H148.343V10.8Z" fill="white"/>
<path d="M211.141 40.0321V52.9081H202.557L195.365 40.0321H211.141ZM193.393 72.1641C193.393 73.9427 194.012 75.4507 195.249 76.6881C196.564 77.9254 198.11 78.5441 199.889 78.5441H211.141V92.0001H199.889C196.873 92.0001 194.012 91.4587 191.305 90.3761C188.676 89.216 186.356 87.6694 184.345 85.7361C182.412 83.7254 180.865 81.4054 179.705 78.7761C178.545 76.1467 177.965 73.3241 177.965 70.3081V52.9081H169.613V40.0321H177.965V19.0361H193.393V72.1641Z" fill="white"/>
<path d="M259.332 69.8441L271.86 78.0801L271.744 78.1961C269.037 82.8361 265.364 86.4707 260.724 89.1001C256.161 91.7294 251.212 93.0441 245.876 93.0441C241.7 93.0441 237.794 92.2707 234.16 90.7241C230.525 89.1001 227.354 86.9347 224.648 84.2281C221.941 81.5214 219.776 78.3507 218.152 74.7161C216.605 71.0814 215.832 67.2147 215.832 63.1161C215.832 59.0174 216.605 55.1507 218.152 51.5161C219.776 47.8814 221.941 44.7107 224.648 42.0041C227.354 39.2974 230.525 37.1707 234.16 35.6241C237.794 34 241.7 33.1881 245.876 33.1881C251.212 33.1881 256.161 34.5027 260.724 37.1321C265.364 39.7614 269.037 43.3961 271.744 48.0361L271.86 48.1521L259.216 56.3881L259.1 56.2721C257.862 53.4107 256.045 51.0907 253.648 49.312C251.328 47.5334 248.737 46.6441 245.876 46.6441C243.788 46.6441 241.816 47.1081 239.96 48.0361C238.181 48.8867 236.634 50.0854 235.32 51.6321C234.005 53.1014 232.961 54.8414 232.188 56.8521C231.414 58.7854 231.028 60.8734 231.028 63.1161C231.028 65.3587 231.414 67.4467 232.188 69.3801C232.961 71.3134 234.005 73.0147 235.32 74.4841C236.634 75.8761 238.181 76.9974 239.96 77.8481C241.816 78.6214 243.788 79.0081 245.876 79.0081C248.737 79.0081 251.328 78.2347 253.648 76.6881C256.045 75.0641 257.862 72.8214 259.1 69.9601L259.216 69.7281L259.332 69.8441Z" fill="white"/>
<path d="M277.74 10.8H293.284L293.168 92.0001H277.624L277.74 10.8ZM330.984 40.9601C334.464 45.6001 336.204 52.9467 336.204 63.0001V92.0001H320.66V63.0001C320.66 60.9121 320.583 58.9014 320.428 56.9681C320.351 55.0347 319.964 53.3334 319.268 51.8641C318.572 50.3947 317.451 49.2347 315.904 48.3841C314.358 47.5334 312.154 47.1081 309.292 47.1081C307.05 47.1081 304.614 47.7267 301.984 48.9641L301.868 49.0801L301.752 48.8481L296.184 38.8721L296.3 38.7561C298.311 36.9774 300.554 35.6627 303.028 34.812C305.503 33.8841 308.21 33.4201 311.148 33.4201C320.506 33.4201 327.118 35.9334 330.984 40.9601Z" fill="white"/>
<path d="M366.99 92.0001V10.8H383.23V92.0001H366.99ZM385.666 75.7601H421.394V92.0001H394.714L385.666 75.7601Z" fill="white"/>
<path d="M426.562 92.0001V34.0001H441.99V92.0001H426.562ZM426.562 10.8H441.99V24.3721H426.562V10.8Z" fill="white"/>
<path d="M463.26 34.1161L478.224 76.1081L468.016 86.6641L446.672 34.0001H463.26V34.1161ZM495.044 34.0001H511.516L487.736 92.0001H474.28L479.036 78.6601L495.044 34.0001Z" fill="white"/>
<path d="M537.578 33.0721C541.676 33.0721 545.543 33.8841 549.178 35.5081C552.812 37.0547 555.983 39.1814 558.69 41.8881C561.396 44.5947 563.523 47.7654 565.07 51.4001C566.694 55.0347 567.506 58.9401 567.506 63.1161C567.506 65.3587 567.274 67.5241 566.81 69.6121L566.694 69.8441H537.23L529.806 58.0121H551.846C550.763 54.7641 548.946 52.0961 546.394 50.0081C543.919 47.9201 540.98 46.8761 537.578 46.8761C535.49 46.8761 533.518 47.3014 531.662 48.1521C529.806 49.0027 528.182 50.1627 526.79 51.6321C525.475 53.0241 524.431 54.7254 523.658 56.7361C522.884 58.6694 522.498 60.7961 522.498 63.1161C522.498 64.8947 522.846 66.7507 523.542 68.6841C524.238 70.5401 525.243 72.2414 526.558 73.7881C527.872 75.3347 529.458 76.6494 531.314 77.7321C533.17 78.7374 535.258 79.2401 537.578 79.2401C539.666 79.2401 541.56 78.9694 543.262 78.4281C545.04 77.8094 546.703 76.4947 548.25 74.4841L548.366 74.3681L548.598 74.4841L562.054 80.4001L561.822 80.6321C559.038 84.4987 555.48 87.5147 551.15 89.6801C546.896 91.8454 542.372 92.9281 537.578 92.9281C533.402 92.9281 529.458 92.1547 525.746 90.6081C522.111 89.0614 518.94 86.9347 516.234 84.2281C513.527 81.5214 511.362 78.3507 509.738 74.7161C508.191 71.0814 507.418 67.2147 507.418 63.1161C507.418 58.9401 508.191 55.0347 509.738 51.4001C511.362 47.7654 513.527 44.5947 516.234 41.8881C518.94 39.1814 522.111 37.0547 525.746 35.5081C529.458 33.8841 533.402 33.0721 537.578 33.0721Z" fill="white"/>
<path d="M611.68 10.8L635.112 67.6401L622.236 78.8921L594.164 10.8H611.68ZM660.864 10.8H678.38L645.088 92.0001H627.688L660.864 10.8Z" fill="white"/>
<path d="M682.125 92.0001V34.0001H697.553V92.0001H682.125ZM682.125 10.8H697.553V24.3721H682.125V10.8Z" fill="white"/>
<path d="M733.554 33.0721C737.653 33.0721 741.52 33.8841 745.154 35.5081C748.789 37.0547 751.96 39.1814 754.666 41.8881C757.373 44.5947 759.5 47.7654 761.046 51.4001C762.67 55.0347 763.482 58.9401 763.482 63.1161C763.482 65.3587 763.25 67.5241 762.786 69.6121L762.67 69.8441H733.206L725.782 58.0121H747.822C746.74 54.7641 744.922 52.0961 742.37 50.0081C739.896 47.9201 736.957 46.8761 733.554 46.8761C731.466 46.8761 729.494 47.3014 727.638 48.1521C725.782 49.0027 724.158 50.1627 722.766 51.6321C721.452 53.0241 720.408 54.7254 719.634 56.7361C718.861 58.6694 718.474 60.7961 718.474 63.1161C718.474 64.8947 718.822 66.7507 719.518 68.6841C720.214 70.5401 721.22 72.2414 722.534 73.7881C723.849 75.3347 725.434 76.6494 727.29 77.7321C729.146 78.7374 731.234 79.2401 733.554 79.2401C735.642 79.2401 737.537 78.9694 739.238 78.4281C741.017 77.8094 742.68 76.4947 744.226 74.4841L744.342 74.3681L744.574 74.4841L758.03 80.4001L757.798 80.6321C755.014 84.4987 751.457 87.5147 747.126 89.6801C742.873 91.8454 738.349 92.9281 733.554 92.9281C729.378 92.9281 725.434 92.1547 721.722 90.6081C718.088 89.0614 714.917 86.9347 712.21 84.2281C709.504 81.5214 707.338 78.3507 705.714 74.7161C704.168 71.0814 703.394 67.2147 703.394 63.1161C703.394 58.9401 704.168 55.0347 705.714 51.4001C707.338 47.7654 709.504 44.5947 712.21 41.8881C714.917 39.1814 718.088 37.0547 721.722 35.5081C725.434 33.8841 729.378 33.0721 733.554 33.0721Z" fill="white"/>
<path d="M829.667 34.0001H845.675L845.559 34.1161L830.015 92.0001H811.571L804.031 57.6641L796.259 92.0001H784.311V91.7681L795.911 34.0001H811.919L820.735 77.9641L829.667 34.0001ZM778.511 34.1161L786.515 74.9481L776.307 85.5041L776.191 85.2721L762.387 34.0001H778.511V34.1161Z" fill="white"/>
<path d="M874.816 33.0721C878.915 33.0721 882.781 33.8841 886.416 35.5081C890.051 37.0547 893.221 39.1814 895.928 41.8881C898.635 44.5947 900.761 47.7654 902.308 51.4001C903.932 55.0347 904.744 58.9401 904.744 63.1161C904.744 65.3587 904.512 67.5241 904.048 69.6121L903.932 69.8441H874.468L867.044 58.0121H889.084C888.001 54.7641 886.184 52.0961 883.632 50.0081C881.157 47.9201 878.219 46.8761 874.816 46.8761C872.728 46.8761 870.756 47.3014 868.9 48.1521C867.044 49.0027 865.42 50.1627 864.028 51.6321C862.713 53.0241 861.669 54.7254 860.896 56.7361C860.123 58.6694 859.736 60.7961 859.736 63.1161C859.736 64.8947 860.084 66.7507 860.78 68.6841C861.476 70.5401 862.481 72.2414 863.796 73.7881C865.111 75.3347 866.696 76.6494 868.552 77.7321C870.408 78.7374 872.496 79.2401 874.816 79.2401C876.904 79.2401 878.799 78.9694 880.5 78.4281C882.279 77.8094 883.941 76.4947 885.488 74.4841L885.604 74.3681L885.836 74.4841L899.292 80.4001L899.06 80.6321C896.276 84.4987 892.719 87.5147 888.388 89.6801C884.135 91.8454 879.611 92.9281 874.816 92.9281C870.64 92.9281 866.696 92.1547 862.984 90.6081C859.349 89.0614 856.179 86.9347 853.472 84.2281C850.765 81.5214 848.6 78.3507 846.976 74.7161C845.429 71.0814 844.656 67.2147 844.656 63.1161C844.656 58.9401 845.429 55.0347 846.976 51.4001C848.6 47.7654 850.765 44.5947 853.472 41.8881C856.179 39.1814 859.349 37.0547 862.984 35.5081C866.696 33.8841 870.64 33.0721 874.816 33.0721Z" fill="white"/>
<path d="M957.828 36.3201L956.436 38.6401L950.52 49.1961L950.404 49.0801C947.852 47.6107 945.106 46.8761 942.168 46.8761C940.157 46.8761 938.262 47.2241 936.484 47.9201C934.705 48.5387 933.12 49.4667 931.728 50.7041C930.336 51.8641 929.137 53.2561 928.132 54.8801C927.204 56.5041 926.585 58.244 926.276 60.1001V92.0001H910.5V34.0001H926.276V41.5401C930.374 35.8947 936.368 33.0721 944.256 33.0721C948.896 33.0721 953.381 34.1547 957.712 36.3201H957.828Z" fill="white"/>
</g>
<defs>
<filter id="filter0_d" x="3.90002" y="4.80005" width="959.928" height="94.244" filterUnits="userSpaceOnUse" color-interpolation-filters="sRGB">
<feFlood flood-opacity="0" result="BackgroundImageFix"/>
<feColorMatrix in="SourceAlpha" type="matrix" values="0 0 0 0 0 0 0 0 0 0 0 0 0 0 0 0 0 0 127 0"/>
<feOffset/>
<feGaussianBlur stdDeviation="3"/>
<feColorMatrix type="matrix" values="0 0 0 0 1 0 0 0 0 1 0 0 0 0 1 0 0 0 0.25 0"/>
<feBlend mode="normal" in2="BackgroundImageFix" result="effect1_dropShadow"/>
<feBlend mode="normal" in="SourceGraphic" in2="effect1_dropShadow" result="shape"/>
</filter>
</defs>
</svg>
