<svg width="50" height="50" viewBox="0 0 50 50" fill="none" xmlns="http://www.w3.org/2000/svg">
<path d="M25 4.6875C14.502 4.6875 5.86914 12.6465 4.80469 22.8613C4.72656 23.5645 4.6875 24.2773 4.6875 25C4.6875 25.7227 4.72656 26.4355 4.80469 27.1387C5.86914 37.3535 14.502 45.3125 25 45.3125C36.2207 45.3125 45.3125 36.2207 45.3125 25C45.3125 13.7793 36.2207 4.6875 25 4.6875ZM38.2617 36.5332C36.0449 35.6934 32.4512 34.4629 30.2148 33.7988C29.9805 33.7305 29.9512 33.7109 29.9512 32.7539C29.9512 31.9629 30.2734 31.1621 30.5957 30.4785C30.9473 29.7461 31.3477 28.5059 31.4941 27.3926C31.9043 26.9141 32.4707 25.9766 32.8223 24.1797C33.1348 22.5977 32.9883 22.0215 32.7832 21.4844C32.7637 21.4258 32.7344 21.3672 32.7246 21.3184C32.6465 20.9473 32.7539 19.0234 33.0273 17.5293C33.2129 16.5039 32.9785 14.3262 31.5723 12.5195C30.6836 11.377 28.9746 9.98047 25.8594 9.78516H24.1504C21.084 9.98047 19.3848 11.377 18.4863 12.5195C17.0703 14.3262 16.8359 16.5039 17.0215 17.5293C17.2949 19.0234 17.4023 20.9473 17.3242 21.3184C17.3047 21.3867 17.2852 21.4355 17.2656 21.4941C17.0605 22.0313 16.9043 22.6074 17.2266 24.1895C17.5879 25.9863 18.1445 26.9238 18.5547 27.4023C18.7012 28.5156 19.1113 29.7461 19.4531 30.4883C19.707 31.0254 19.8242 31.7578 19.8242 32.793C19.8242 33.7598 19.7852 33.7695 19.5703 33.8379C17.2559 34.5215 13.8184 35.7324 11.7578 36.5527C8.94531 33.3398 7.42188 29.2871 7.42188 25C7.42188 20.3027 9.24805 15.8887 12.5684 12.5684C15.8887 9.24805 20.3027 7.42188 25 7.42188C29.6973 7.42188 34.1113 9.24805 37.4316 12.5684C40.752 15.8887 42.5781 20.3027 42.5781 25C42.5781 29.2871 41.0547 33.3398 38.2617 36.5332Z" fill="white"/>
</svg>
